<?xml version="1.0" encoding="UTF-8"?>
<svg xmlns="http://www.w3.org/2000/svg" viewBox="0 0 250 250">
  <defs>
    <style>
      .cls-1 {
        fill: #a1a2aa;
      }

      .cls-1, .cls-2 {
        stroke-width: 0px;
      }

      .cls-2 {
        fill: #fff;
      }
    </style>
  </defs>
  <g id="_レイヤー_2" data-name="レイヤー 2">
    <path class="cls-2" d="M12.21,0h225.79c6.62,0,12,5.38,12,12v226c0,6.62-5.38,12-12,12H12c-6.62,0-12-5.38-12-12V12.21C0,5.47,5.47,0,12.21,0Z"/>
  </g>
  <g id="_レイヤー_1" data-name="レイヤー 1">
    <path class="cls-1" d="M11.8.03C5.32.03.09,5.26.09,11.75v226.48c0,6.49,5.23,11.71,11.71,11.71h226.48c6.49,0,11.71-5.23,11.71-11.71V11.75c0-6.49-5.23-11.71-11.71-11.71H11.8ZM192.6,101.56c6.37,0,12.02.39,16.94,1.16,4.65.7,9.2,1.88,13.6,3.54v25.59c-2.11-1.46-4.35-2.72-6.7-3.76-2.42-1.09-4.91-1.99-7.47-2.71-4.84-1.35-9.83-2.05-14.85-2.08-3.12,0-5.97.29-8.53.9-2.28.49-4.47,1.34-6.49,2.52-1.77,1.08-3.12,2.38-4.09,3.89-.97,1.52-1.48,3.3-1.46,5.1,0,2.04.55,3.88,1.62,5.51,1.08,1.62,2.62,3.17,4.61,4.62s4.4,2.87,7.25,4.27c2.84,1.41,6.06,2.85,9.64,4.33,4.89,2.05,9.29,4.24,13.18,6.54,3.89,2.31,7.24,4.93,10.03,7.84,2.79,2.91,4.91,6.23,6.39,9.97,1.48,3.74,2.23,8.08,2.23,13.05,0,6.84-1.3,12.6-3.88,17.24-2.52,4.58-6.14,8.46-10.54,11.3-4.74,3-9.99,5.11-15.48,6.21-5.89,1.25-12.11,1.87-18.64,1.87-6.43.03-12.84-.54-19.16-1.71-5.47-.95-10.77-2.67-15.74-5.13v-27.39c9.41,8.01,21.35,12.43,33.71,12.5,3.47,0,6.5-.31,9.08-.94,2.59-.62,4.75-1.5,6.49-2.6,1.73-1.12,3.02-2.44,3.88-3.96,1.95-3.61,1.65-8.02-.77-11.34-1.55-2.05-3.44-3.81-5.59-5.21-2.67-1.77-5.48-3.32-8.4-4.62-3.46-1.58-6.96-3.1-10.49-4.54-9.56-3.99-16.68-8.87-21.38-14.63-4.69-5.76-7.04-12.72-7.04-20.88,0-6.39,1.28-11.88,3.84-16.47,2.56-4.59,6.04-8.37,10.45-11.34,4.67-3.08,9.85-5.3,15.31-6.55,6.04-1.42,12.23-2.13,18.43-2.09ZM35.23,103.52h99.58v22.55h-35.74v100.44h-28.29v-100.44h-35.55v-22.55Z"/>
  </g>
</svg>